<?xml version="1.0" encoding="UTF-8"?>
<svg id="Layer_1" data-name="Layer 1" xmlns="http://www.w3.org/2000/svg" viewBox="0 0 130.52 38.65">
  <defs>
    <style>
      .cls-1 {
        font-family: AcademyEngravedLetPlain, 'Academy Engraved LET';
        font-size: 34.89px;
      }

      .cls-1, .cls-2 {
        fill: #3c2415;
      }
    </style>
  </defs>
  <text class="cls-1" transform="translate(0 29.22) scale(.66 1)"><tspan x="0" y="0">Cascade Cafe</tspan></text>
  <path class="cls-2" d="M64.21,11.74c-.06-.35-1.02-1.1-1.72-1.6-.43-.31-.88-.54-1.35-.69-1.27-.4-4.13-1.46-5.76-3.15-2.13-2.21-2.03-.87-2.03-.87l-3.04,1.82-2.95-1.86c-.29-.18-.57-.38-.83-.64-1.09-1.13-1.81-.02-1.81-.02l-5.23,3.22s-4.41-4.48-5.73-6.16-1.83-.56-1.83-.56l-2.41,1.67c-.59,.41-1.25,.62-1.91,.57-1.25-.09-3.66,.17-5.92,2.8-3.25,3.78-6.69,5.46-6.69,5.46,0,0,4.67-.7,6.8-3.5,1.67-2.2,4.91-2.76,6.22-2.9,.4-.04,.79-.19,1.16-.44l2.36-1.57,2.64,2.38s2.7,1.37,5.64,3.87c.36,.3,.75,.52,1.17,.61,1.43,.31,4.86,1.1,5.26,1.55,0,0-2.99-2.25-5.27-2.66l4.29-3.33,5.4,2.98s5.02,2.49,5.93,3.26c0,0-2.18-2.56-5.3-4.03l2.49-1.72s4.34,3.12,7.56,4.13l2.87,1.37Z"/>
</svg>